<svg id="visual" viewBox="0 0 800 1000" width="800" height="1000" xmlns="http://www.w3.org/2000/svg" xmlns:xlink="http://www.w3.org/1999/xlink" version="1.1"><rect x="0" y="0" width="800" height="1000" fill="#01142D"></rect><defs><linearGradient id="grad1_0" x1="0%" y1="0%" x2="100%" y2="100%"><stop offset="30%" stop-color="#01142d" stop-opacity="1"></stop><stop offset="70%" stop-color="#01142d" stop-opacity="1"></stop></linearGradient></defs><defs><linearGradient id="grad2_0" x1="0%" y1="0%" x2="100%" y2="100%"><stop offset="30%" stop-color="#01142d" stop-opacity="1"></stop><stop offset="70%" stop-color="#01142d" stop-opacity="1"></stop></linearGradient></defs><g transform="translate(800, 0)"><path d="M0 384.2C-35.2 344.2 -70.5 304.2 -120.9 291.9C-171.4 279.7 -237.1 295.2 -271.7 271.7C-306.3 248.2 -309.8 185.7 -323.4 133.9C-336.9 82.2 -360.6 41.1 -384.2 0L0 0Z" fill="#B17D31"></path></g><g transform="translate(0, 1000)"><path d="M0 -384.2C54.9 -384.3 109.8 -384.4 147 -354.9C184.2 -325.5 203.7 -266.6 224.2 -224.2C244.6 -181.8 266 -155.9 292.9 -121.3C319.7 -86.7 351.9 -43.4 384.2 0L0 0Z" fill="#B17D31"></path></g></svg>