<svg id="visual" viewBox="0 0 1200 1000" width="1200" height="1000" xmlns="http://www.w3.org/2000/svg" xmlns:xlink="http://www.w3.org/1999/xlink" version="1.1"><rect x="0" y="0" width="1200" height="1000" fill="#01142D"></rect><defs><linearGradient id="grad1_0" x1="16.7%" y1="0%" x2="100%" y2="100%"><stop offset="26%" stop-color="#01142d" stop-opacity="1"></stop><stop offset="74%" stop-color="#01142d" stop-opacity="1"></stop></linearGradient></defs><defs><linearGradient id="grad2_0" x1="0%" y1="0%" x2="83.3%" y2="100%"><stop offset="26%" stop-color="#01142d" stop-opacity="1"></stop><stop offset="74%" stop-color="#01142d" stop-opacity="1"></stop></linearGradient></defs><g transform="translate(1200, 0)"><path d="M0 468.6C-49.9 433.3 -99.7 398 -157.3 379.7C-214.8 361.4 -280.1 360.1 -329.5 329.5C-378.9 298.9 -412.4 239.1 -432.9 179.3C-453.5 119.5 -461 59.8 -468.6 0L0 0Z" fill="#B17D31"></path></g><g transform="translate(0, 1000)"><path d="M0 -468.6C54.4 -432.1 108.9 -395.6 149.6 -361.2C190.4 -326.9 217.4 -294.7 268.7 -268.7C320 -242.7 395.6 -223.1 432.9 -179.3C470.3 -135.6 469.5 -67.8 468.6 0L0 0Z" fill="#B17D31"></path></g></svg>