<svg id="visual" viewBox="0 0 1920 1080" width="1920" height="1080" xmlns="http://www.w3.org/2000/svg" xmlns:xlink="http://www.w3.org/1999/xlink" version="1.1"><rect x="0" y="0" width="1920" height="1080" fill="#01142D"></rect><defs><linearGradient id="grad1_0" x1="43.8%" y1="0%" x2="100%" y2="100%"><stop offset="14.444444444444446%" stop-color="#01142d" stop-opacity="1"></stop><stop offset="85.55555555555554%" stop-color="#01142d" stop-opacity="1"></stop></linearGradient></defs><defs><linearGradient id="grad2_0" x1="0%" y1="0%" x2="56.3%" y2="100%"><stop offset="14.444444444444446%" stop-color="#01142d" stop-opacity="1"></stop><stop offset="85.55555555555554%" stop-color="#01142d" stop-opacity="1"></stop></linearGradient></defs><g transform="translate(1920, 0)"><path d="M0 702C-68.7 638.7 -137.4 575.5 -228.5 551.6C-319.6 527.6 -433.1 543 -496.4 496.4C-559.7 449.7 -572.8 341.1 -598.7 248C-624.6 154.9 -663.3 77.5 -702 0L0 0Z" fill="#B17D31"></path></g><g transform="translate(0, 1080)"><path d="M0 -702C77.7 -661.3 155.4 -620.7 246.1 -594.1C336.7 -567.4 440.3 -554.8 496.4 -496.4C552.5 -438 561.2 -333.8 587.6 -243.4C614 -153 658 -76.5 702 0L0 0Z" fill="#B17D31"></path></g></svg>