<svg id="visual" viewBox="0 0 800 1200" width="800" height="1200" xmlns="http://www.w3.org/2000/svg" xmlns:xlink="http://www.w3.org/1999/xlink" version="1.1"><rect x="0" y="0" width="800" height="1200" fill="#021126"></rect><defs><linearGradient id="grad1_0" x1="0%" y1="0%" x2="100%" y2="100%"><stop offset="30%" stop-color="#021126" stop-opacity="1"></stop><stop offset="70%" stop-color="#021126" stop-opacity="1"></stop></linearGradient></defs><defs><linearGradient id="grad2_0" x1="0%" y1="0%" x2="100%" y2="100%"><stop offset="30%" stop-color="#021126" stop-opacity="1"></stop><stop offset="70%" stop-color="#021126" stop-opacity="1"></stop></linearGradient></defs><g transform="translate(800, 0)"><path d="M0 504.8C-50.1 459.5 -100.1 414.1 -164.2 396.3C-228.2 378.6 -306.3 388.3 -356.9 356.9C-407.6 325.6 -430.8 253.1 -450.9 186.7C-470.9 120.4 -487.9 60.2 -504.8 0L0 0Z" fill="#7D5A29"></path></g><g transform="translate(0, 1200)"><path d="M0 -504.8C52.2 -469.8 104.3 -434.7 173 -417.6C241.6 -400.4 326.7 -401.2 356.9 -356.9C387.1 -312.7 362.4 -223.5 377.9 -156.5C393.4 -89.5 449.1 -44.8 504.8 0L0 0Z" fill="#7D5A29"></path></g></svg>