<svg id="visual" viewBox="0 0 675 1000" width="675" height="1000" xmlns="http://www.w3.org/2000/svg" xmlns:xlink="http://www.w3.org/1999/xlink" version="1.1"><rect x="0" y="0" width="675" height="1000" fill="#01142D"></rect><defs><linearGradient id="grad1_0" x1="0%" y1="0%" x2="100%" y2="100%"><stop offset="30%" stop-color="#01142d" stop-opacity="1"></stop><stop offset="70%" stop-color="#01142d" stop-opacity="1"></stop></linearGradient></defs><defs><linearGradient id="grad2_0" x1="0%" y1="0%" x2="100%" y2="100%"><stop offset="30%" stop-color="#01142d" stop-opacity="1"></stop><stop offset="70%" stop-color="#01142d" stop-opacity="1"></stop></linearGradient></defs><g transform="translate(675, 0)"><path d="M0 361.9C-48.7 358.4 -97.4 354.9 -138.5 334.4C-179.6 313.8 -213.2 276.2 -239 239C-264.8 201.8 -282.9 164.9 -302.1 125.1C-321.3 85.4 -341.6 42.7 -361.9 0L0 0Z" fill="#B17D31"></path></g><g transform="translate(0, 1000)"><path d="M0 -361.9C48.3 -357.8 96.7 -353.7 138.5 -334.4C180.3 -315.1 215.6 -280.6 244.7 -244.7C273.7 -208.8 296.5 -171.5 315 -130.5C333.6 -89.5 347.8 -44.7 361.9 0L0 0Z" fill="#B17D31"></path></g></svg>