<svg id="visual" viewBox="0 0 1920 1080" width="1920" height="1080" xmlns="http://www.w3.org/2000/svg" xmlns:xlink="http://www.w3.org/1999/xlink" version="1.1"><rect x="0" y="0" width="1920" height="1080" fill="#001836"></rect><defs><linearGradient id="grad1_0" x1="43.8%" y1="0%" x2="100%" y2="100%"><stop offset="14.444444444444446%" stop-color="#001836" stop-opacity="1"></stop><stop offset="85.55555555555554%" stop-color="#001836" stop-opacity="1"></stop></linearGradient></defs><defs><linearGradient id="grad2_0" x1="0%" y1="0%" x2="56.3%" y2="100%"><stop offset="14.444444444444446%" stop-color="#001836" stop-opacity="1"></stop><stop offset="85.55555555555554%" stop-color="#001836" stop-opacity="1"></stop></linearGradient></defs><g transform="translate(1920, 0)"><path d="M0 648C-93.2 649 -186.5 650 -248 598.7C-309.5 547.4 -339.2 443.8 -371.2 371.2C-403.3 298.7 -437.6 257.2 -484.1 200.5C-530.6 143.8 -589.3 71.9 -648 0L0 0Z" fill="#FBAE3C"></path></g><g transform="translate(0, 1080)"><path d="M0 -648C65.4 -597.4 130.8 -546.7 217.4 -524.8C304 -502.8 411.8 -509.5 458.2 -458.2C504.6 -406.9 489.5 -297.7 510.9 -211.6C532.3 -125.6 590.1 -62.8 648 0L0 0Z" fill="#FBAE3C"></path></g></svg>